PathFileType	4	(X/Y/Z)	C:\Users\WrightLab\Desktop\Jo\P3_19.trc
DataRate	CameraRate	NumFrames	NumMarkers	Units	OrigDataRate	OrigDataStartFrame	OrigNumFrames
100.00	100.00	       7	19	mm	100.00	366	       731
Frame#	Time	Headset_Front			Headset_Back			Headset_Left			Headset_Right			Left_Shoulder			Right_Shoulder			Sternum			C7			Left Elbow			Right Elbow			Left Wrist			Right Wrist			Left ASIS			Right ASIS			S2			Left Knee			Right Knee			Left Ankle			Right Ankle			
		X1	Y1	Z1	X2	Y2	Z2	X3	Y3	Z3	X4	Y4	Z4	X5	Y5	Z5	X6	Y6	Z6	X7	Y7	Z7	X8	Y8	Z8	X9	Y9	Z9	X10	Y10	Z10	X11	Y11	Z11	X12	Y12	Z12	X13	Y13	Z13	X14	Y14	Z14	X15	Y15	Z15	X16	Y16	Z16	X17	Y17	Z17	X18	Y18	Z18	X19	Y19	Z19	

366	3.650	68.47974	1500.23145	919.27167							-38.47181	1541.05237	820.78577	236.89966	1351.35669	645.15302	-117.09021	1372.17456	689.21252	77.48196	1236.52832	791.44830	51.99014	1409.24902	625.29901	310.68817	1022.73425	605.00580	-215.99182	1031.05798	688.83301	342.26395	838.81189	697.29510	-194.45396	854.86426	833.10828	179.42145	885.04871	748.07159	-63.32984	885.08295	814.96741	6.50686	954.58850	573.18921	218.76318	469.08359	706.78967	-15.49742	468.24554	881.43811	215.81781	138.37610	656.23816	-103.02916	253.78339	637.55701	
367	3.660	71.62899	1500.56116	927.44696							-35.58655	1541.60107	827.70483	241.36456	1352.23596	654.56653	-112.58618	1373.14478	694.81769	80.83955	1236.92542	798.38068	57.23964	1410.35913	632.45898	317.31674	1023.90240	617.22754	-211.04559	1031.79407	691.31116	348.37473	841.24457	711.02722	-191.88374	855.07422	835.32794	183.93753	886.45184	756.30109	-60.17875	886.36505	819.98853	11.36110	956.04883	579.13702	218.75656	468.22174	709.32037	-10.05917	472.71631	894.71063	215.99571	138.41438	656.44855	-90.27430	252.98386	652.87195	
368	3.670	74.35699	1500.74060	935.09650							-32.04616	1542.26135	834.56458	245.97871	1353.58191	663.22858	-108.09388	1373.91199	700.28003	84.17413	1237.28467	805.15088	62.04495	1411.18164	639.20581	323.84854	1025.04492	629.45172	-206.82526	1032.45898	695.13391	354.63702	843.34961	725.24255	-188.48343	854.76196	837.38727	186.99350	886.70416	762.13812	-56.37491	888.22919	824.40613	16.00095	957.12982	585.30438	220.97885	468.78909	710.66431	-5.08275	477.45358	908.16339	216.08739	138.57396	656.48828	-77.90168	251.22934	668.43201	
369	3.680	76.71471	1500.89392	942.37592							-28.87930	1542.52112	841.49146	250.62070	1354.48315	671.44373	-104.00440	1374.50537	706.38141	87.73775	1237.67615	812.53796	67.06593	1411.81519	646.46661	330.27167	1026.08118	641.55310	-202.49802	1033.53784	698.06067	360.92807	845.35608	739.13495	-185.64836	854.64667	839.83240	191.23590	887.05322	769.53564	-52.99476	889.73022	828.82605	20.80764	958.05109	591.23114	222.08249	468.95456	712.88080	-0.82931	481.58832	921.23688	216.10919	138.68945	657.10474	-65.91638	248.34444	685.19226	
370	3.690	78.93810	1500.64978	950.41071							-25.84445	1542.57104	848.50763	254.70753	1355.33740	681.32959	-99.40769	1375.20740	711.89282	91.05679	1238.28467	820.20471	71.68573	1412.78064	653.39514	336.76263	1027.37109	653.15234	-198.44588	1034.57385	701.60858	365.63651	847.31616	753.78955	-183.11276	854.58972	842.01575	194.00349	886.82184	775.56256	-49.65363	890.44543	834.05682	25.66202	958.82062	596.97302	223.26039	468.21680	714.93945	3.35971	485.70190	933.74481	216.55505	138.86772	658.17383	-53.60645	244.64095	702.61499	
371	3.700	81.19885	1500.80127	957.66632							-23.11421	1542.89417	855.41229	258.86194	1355.90564	689.37720	-95.33660	1375.35547	717.51398	94.59566	1238.05444	827.17419	76.30554	1412.83618	661.21637	342.52670	1028.45703	665.76025	-193.45073	1034.58826	705.19055	371.49109	849.33698	768.04248	-180.63725	854.50006	844.61554	197.89204	886.60120	782.64954	-46.05175	891.14746	838.39795	29.92101	959.42303	602.79938	224.66769	467.93552	717.61328	7.78935	489.61169	945.57800	216.51468	139.41844	659.04224	-42.15085	240.06683	721.12842	
372	3.710	83.05469	1500.67578	965.11511	196.48715	1578.80701	806.35077				-20.29750	1542.40344	862.40387	262.85648	1356.69141	697.29059	-91.41273	1375.68494	723.70898	96.99338	1238.22241	832.95074	80.32558	1413.87097	668.57874	348.17770	1028.90955	678.01221	-189.60187	1034.64990	708.47095	376.71332	851.32306	782.93195	-177.93510	853.47552	847.51819	200.37334	885.72968	788.34845	-43.21728	892.36298	843.73370	35.23486	959.25415	608.99603	225.53557	467.78552	720.34113	11.16788	492.91077	957.09424	216.85127	139.48689	659.02826	-30.49573	234.58807	739.92603	
